<?xml version="1.0" encoding="utf-8"?>
<!-- Generator: Adobe Illustrator 19.0.0, SVG Export Plug-In . SVG Version: 6.00 Build 0)  -->
<svg version="1.2" baseProfile="tiny" id="Layer_1" xmlns="http://www.w3.org/2000/svg" xmlns:xlink="http://www.w3.org/1999/xlink"
	 x="0px" y="0px" viewBox="0 0 400 49.4" xml:space="preserve">
<g id="XMLID_701_">
	<path id="XMLID_2_" fill="#5E5C74" d="M21.8,43c0,3.2-2.6,5.9-5.9,5.9h-1.1C6.2,48.9,0,42,0,33.5V6.3c0-3.2,2.6-5.9,5.9-5.9
		c3.2,0,5.9,2.6,5.9,5.9v5.8h5.4c2.9,0,5.1,2.3,5.1,5.1c0,2.8-2.3,5.1-5.1,5.1h-5.4v11.2c0,1.8,1,3.6,3.1,3.6H16
		C19.2,37.1,21.8,39.8,21.8,43z"/>
	<path id="XMLID_4_" fill="#5E5C74" d="M54.8,34.9H35.2c3.2,4.9,9.3,5.7,14,3.1c2.4-1.5,5.4-0.6,6.8,1.8c1.4,2.4,0.6,5.5-1.8,6.9
		c-3.2,1.8-6.8,2.8-10.5,2.8c-8.5,0-15.1-4.8-18-10.9c-2.3-4.7-2.2-10.5-0.2-15.3c2.6-6.3,9-11.5,17.3-11.5
		c9.5,0,17.4,7.1,18.6,16.5C61.9,32.7,59,34.9,54.8,34.9z M50.3,26.5c-0.7-2.8-3.8-5.4-7.5-5.4c-3.7,0-6.8,2.6-7.5,5.4H50.3z"/>
	<path id="XMLID_7_" fill="#5E5C74" d="M79.9,21.8c-1.4-0.4-3.5-1-3.8,0.7c-0.4,1.5,2.3,2.2,3.4,2.4c2.2,0.4,4.3,1.7,5.9,3.4
		c3.4,3.5,4.1,9.1,2.2,13.5c-2,4.6-6.5,7.3-11.4,7.6c-2.7,0.1-8.4-0.6-10.7-3.6c-2.9-3.8-0.1-9.2,4.6-9c1.8,0.1,3.8,1.5,5.4,1.5
		c2.6,0.2,3.2-3,0.7-3.7c-4.6-1.4-8-3.2-10.1-7.5c-1.5-3.2-1.2-7.3,1-10.2c3.5-4.8,10.2-6.4,15.7-4.3c2.9,1.2,5.4,4.2,3.5,7.4
		C85,22.3,82.7,22.8,79.9,21.8z"/>
	<path id="XMLID_9_" fill="#5E5C74" d="M116.3,43c0,3.2-2.6,5.9-5.9,5.9h-1.1c-8.7,0-14.9-6.8-14.9-15.4V6.3c0-3.2,2.6-5.9,5.9-5.9
		c3.2,0,5.9,2.6,5.9,5.9v5.8h5.4c2.9,0,5.1,2.3,5.1,5.1c0,2.8-2.3,5.1-5.1,5.1h-5.4v11.2c0,1.8,1,3.6,3.1,3.6h1.1
		C113.6,37.1,116.3,39.8,116.3,43z"/>
	<path id="XMLID_11_" fill="#5E5C74" d="M156.2,30.6c0,10.4-8.5,18.8-18.8,18.8c-10.4,0-18.8-8.5-18.8-18.8s8.5-18.8,18.8-18.8
		C147.7,11.8,156.2,20.3,156.2,30.6z M130.2,30.6c0,4,3.2,7.1,7.1,7.1c4,0,7.1-3.2,7.1-7.1s-3.2-7.1-7.1-7.1
		C133.4,23.5,130.2,26.7,130.2,30.6z"/>
	<path id="XMLID_14_" fill="#5E5C74" d="M214.5,27.9V43c0,3.2-2.7,5.9-5.9,5.9c-3.2,0-5.9-2.6-5.9-5.9V27.9c0-2.5-2-4.5-4.5-4.5
		c-2.4,0-4.5,2-4.5,4.5V43c0,3.2-2.6,5.9-5.9,5.9c-3.2,0-5.9-2.6-5.9-5.9V27.9c0-2.5-2.1-4.5-4.5-4.5c-2.5,0-4.5,2-4.5,4.5V43
		c0,3.2-2.6,5.9-5.9,5.9c-3.2,0-5.8-2.6-5.8-5.9V17.7c0-3.2,2.5-5.6,5.5-5.6c1.4,0,2.6,0.5,3.5,1.3c2.1-1.1,4.6-1.7,7.1-1.7
		c3.9,0,7.6,1.5,10.4,3.8c2.8-2.3,6.5-3.8,10.4-3.8C207.2,11.7,214.5,19,214.5,27.9z"/>
	<path id="XMLID_16_" fill="#5E5C74" d="M249.6,34.9H230c3.2,4.9,9.3,5.7,14,3.1c2.4-1.5,5.4-0.6,6.8,1.8c1.4,2.4,0.6,5.5-1.8,6.9
		c-3.2,1.8-6.8,2.8-10.5,2.8c-8.5,0-15.1-4.8-18-10.9c-2.3-4.7-2.2-10.5-0.2-15.3c2.6-6.3,9-11.5,17.3-11.5
		c9.5,0,17.4,7.1,18.6,16.5C256.7,32.7,253.8,34.9,249.6,34.9z M245.1,26.5c-0.7-2.8-3.8-5.4-7.5-5.4c-3.7,0-6.8,2.6-7.5,5.4H245.1z
		"/>
	<path id="XMLID_19_" fill="#5E5C74" d="M282.9,43c0,3.2-2.6,5.9-5.9,5.9h-1.1c-8.7,0-14.9-6.8-14.9-15.4V6.3c0-3.2,2.6-5.9,5.9-5.9
		c3.2,0,5.9,2.6,5.9,5.9v5.8h5.4c2.9,0,5.1,2.3,5.1,5.1c0,2.8-2.3,5.1-5.1,5.1h-5.4v11.2c0,1.8,1,3.6,3.1,3.6h1.1
		C280.3,37.1,282.9,39.8,282.9,43z"/>
	<path id="XMLID_21_" fill="#5E5C74" d="M309.9,18c-0.1,3.2-2.9,5.5-6.2,5.6c-2.6,0.1-4.7,2-4.7,4.5v15c0,3.2-2.6,5.8-5.8,5.8
		s-5.8-2.6-5.8-5.8V17.6c0-3,2.4-5.5,5.5-5.5c1.4,0,2.6,0.5,3.7,1.4c3-1.5,6.3-1.6,7.8-1.6C307.6,12,310.1,14.7,309.9,18z"/>
	<path id="XMLID_23_" fill="#5E5C74" d="M319.8,48.9c-3.2,0-5.9-2.6-5.9-5.9V17.5c0-3.2,2.6-5.9,5.9-5.9c3.2,0,5.9,2.6,5.9,5.9V43
		C325.7,46.2,323.1,48.9,319.8,48.9z M324.8,5c0,2.8-2.3,5.1-5,5.1c-2.8,0-5.1-2.3-5.1-5.1c0-2.7,2.3-5,5.1-5
		C322.6,0,324.8,2.2,324.8,5z"/>
	<path id="XMLID_26_" fill="#5E5C74" d="M358.7,47.4c-2.3,2.3-6,2.2-8.3-0.2l-7.4-7.6V43c0,3.2-2.6,5.9-5.9,5.9
		c-3.2,0-5.9-2.6-5.9-5.9V6c0-3.3,2.6-6,5.9-6c3.3,0,5.9,2.6,5.9,6v15.3l6.6-7.8c2.1-2.5,5.8-2.8,8.3-0.7c2.5,2.1,2.8,5.8,0.7,8.3
		l-7.9,9.3l8.2,8.6C361.2,41.4,361,45,358.7,47.4z"/>
	<path id="XMLID_28_" fill="#5E5C74" d="M400,17.6v25.7c0,3-2.5,5.5-5.5,5.5c-1.6,0-3.1-0.7-4.1-1.8c-2.8,1.5-5.8,2.4-9.2,2.4
		c-10.4,0-18.8-8.5-18.8-18.8s8.5-18.8,18.8-18.8c3.2,0,6.3,0.9,9,2.4c1-1.3,2.5-2.1,4.3-2.1C397.5,12.1,400,14.6,400,17.6z
		 M388.3,30.6c0-4-3.2-7.1-7.1-7.1c-4,0-7.1,3.2-7.1,7.1s3.2,7.1,7.1,7.1C385.1,37.8,388.3,34.6,388.3,30.6z"/>
</g>
</svg>
